{
  "accessors": [
    {
      "bufferView": 2,
      "componentType": 5126,
      "count": 24,
      "max": [
        0.8999999761581421,
        0.8999999761581421,
        0.8999999761581421
      ],
      "min": [
        -0.8999999761581421,
        -0.8999999761581421,
        -0.8999999761581421
      ],
      "type": "VEC3"
    },
    {
      "bufferView": 2,
      "byteOffset": 288,
      "componentType": 5126,
      "count": 24,
      "max": [
        1.0,
        1.0,
        1.0
      ],
      "min": [
        -1.0,
        -1.0,
        -1.0
      ],
      "type": "VEC3"
    },
    {
      "bufferView": 1,
      "componentType": 5126,
      "count": 24,
      "max": [
        1.0,
        1.0
      ],
      "min": [
        0.0,
        0.0
      ],
      "type": "VEC2"
    },
    {
      "bufferView": 0,
      "componentType": 5125,
      "count": 36,
      "type": "SCALAR"
    },
    {
      "bufferView": 2,
      "byteOffset": 576,
      "componentType": 5126,
      "count": 65534,
      "max": [
        1.636255145072937,
        1.6141880750656128,
        1.5092198848724365
      ],
      "min": [
        -1.592332124710083,
        -1.811867594718933,
        -1.6301087141036987
      ],
      "type": "VEC3"
    },
    {
      "bufferView": 2,
      "byteOffset": 786984,
      "componentType": 5126,
      "count": 65534,
      "max": [
        1.0,
        1.0,
        1.0
      ],
      "min": [
        -1.0,
        -1.0,
        -1.0
      ],
      "type": "VEC3"
    },
    {
      "bufferView": 3,
      "componentType": 5126,
      "count": 65534,
      "max": [
        1.0,
        4.359775630291551e-06,
        4.037302005599486e-06,
        1.0
      ],
      "min": [
        -4.627535872714361e-06,
        -4.18537365476368e-06,
        -1.0,
        -1.0
      ],
      "type": "VEC4"
    },
    {
      "bufferView": 1,
      "byteOffset": 192,
      "componentType": 5126,
      "count": 65534,
      "max": [
        0.9775915145874023,
        0.9757975339889526
      ],
      "min": [
        0.03522875905036926,
        -0.028849422931671143
      ],
      "type": "VEC2"
    },
    {
      "bufferView": 1,
      "byteOffset": 524464,
      "componentType": 5126,
      "count": 65534,
      "max": [
        0.9775915145874023,
        0.9757975339889526
      ],
      "min": [
        0.03522875905036926,
        -0.028849422931671143
      ],
      "type": "VEC2"
    },
    {
      "bufferView": 1,
      "byteOffset": 1048736,
      "componentType": 5126,
      "count": 65534,
      "max": [
        0.9775915145874023,
        0.9757975339889526
      ],
      "min": [
        0.03522875905036926,
        -0.028849422931671143
      ],
      "type": "VEC2"
    },
    {
      "bufferView": 1,
      "byteOffset": 1573008,
      "componentType": 5126,
      "count": 65534,
      "max": [
        0.9775915145874023,
        0.9757975339889526
      ],
      "min": [
        0.03522875905036926,
        -0.028849422931671143
      ],
      "type": "VEC2"
    },
    {
      "bufferView": 0,
      "byteOffset": 144,
      "componentType": 5125,
      "count": 115503,
      "type": "SCALAR"
    },
    {
      "bufferView": 2,
      "byteOffset": 1573392,
      "componentType": 5126,
      "count": 921,
      "max": [
        1.5483564138412476,
        1.4904006719589233,
        1.4626163244247437
      ],
      "min": [
        -1.3584686517715454,
        -1.7490290403366089,
        -1.4306282997131348
      ],
      "type": "VEC3"
    },
    {
      "bufferView": 2,
      "byteOffset": 1584444,
      "componentType": 5126,
      "count": 921,
      "max": [
        1.0,
        1.0,
        1.0
      ],
      "min": [
        -1.0,
        -1.0,
        -1.0
      ],
      "type": "VEC3"
    },
    {
      "bufferView": 3,
      "byteOffset": 1048544,
      "componentType": 5126,
      "count": 921,
      "max": [
        1.0,
        0.0,
        -0.0,
        1.0
      ],
      "min": [
        0.0,
        0.0,
        -1.0,
        -1.0
      ],
      "type": "VEC4"
    },
    {
      "bufferView": 1,
      "byteOffset": 2097280,
      "componentType": 5126,
      "count": 921,
      "max": [
        0.9519355297088623,
        0.9350193738937378
      ],
      "min": [
        0.0730903148651123,
        -0.010508060455322266
      ],
      "type": "VEC2"
    },
    {
      "bufferView": 1,
      "byteOffset": 2104648,
      "componentType": 5126,
      "count": 921,
      "max": [
        0.9519355297088623,
        0.9350193738937378
      ],
      "min": [
        0.0730903148651123,
        -0.010508060455322266
      ],
      "type": "VEC2"
    },
    {
      "bufferView": 1,
      "byteOffset": 2112016,
      "componentType": 5126,
      "count": 921,
      "max": [
        0.9519355297088623,
        0.9350193738937378
      ],
      "min": [
        0.0730903148651123,
        -0.010508060455322266
      ],
      "type": "VEC2"
    },
    {
      "bufferView": 1,
      "byteOffset": 2119384,
      "componentType": 5126,
      "count": 921,
      "max": [
        0.9519355297088623,
        0.9350193738937378
      ],
      "min": [
        0.0730903148651123,
        -0.010508060455322266
      ],
      "type": "VEC2"
    },
    {
      "bufferView": 0,
      "byteOffset": 462156,
      "componentType": 5125,
      "count": 1461,
      "type": "SCALAR"
    },
    {
      "bufferView": 4,
      "componentType": 5126,
      "count": 400,
      "max": [
        16.0
      ],
      "min": [
        0.03999999910593033
      ],
      "type": "SCALAR"
    },
    {
      "bufferView": 6,
      "componentType": 5126,
      "count": 400,
      "max": [
        0.0,
        1.0,
        -0.0,
        1.0
      ],
      "min": [
        0.0,
        -0.9999773502349854,
        -0.0,
        1.6292069915380125e-07
      ],
      "type": "VEC4"
    },
    {
      "bufferView": 4,
      "byteOffset": 1600,
      "componentType": 5126,
      "count": 327,
      "max": [
        16.0
      ],
      "min": [
        0.03999999910593033
      ],
      "type": "SCALAR"
    },
    {
      "bufferView": 5,
      "componentType": 5126,
      "count": 327,
      "max": [
        1.7596486806869507,
        4.598251819610596,
        1.7596486806869507
      ],
      "min": [
        1.7596484422683716,
        4.598251819610596,
        1.7596484422683716
      ],
      "type": "VEC3"
    }
  ],
  "animations": [
    {
      "channels": [
        {
          "sampler": 0,
          "target": {
            "node": 3,
            "path": "rotation"
          }
        },
        {
          "sampler": 1,
          "target": {
            "node": 3,
            "path": "scale"
          }
        }
      ],
      "name": "Rotation",
      "samplers": [
        {
          "input": 20,
          "interpolation": "LINEAR",
          "output": 21
        },
        {
          "input": 22,
          "interpolation": "LINEAR",
          "output": 23
        }
      ]
    }
  ],
  "asset": {
    "extras": {
      "author": "Portal.Studio (https://sketchfab.com/Portal.Studio)",
      "license": "CC-BY-4.0 (http://creativecommons.org/licenses/by/4.0/)",
      "source": "https://sketchfab.com/3d-models/beta-tower-bd1c83f306c94582ae988cb69e404cb8",
      "title": "BETA TOWER"
    },
    "generator": "Sketchfab-15.34.0",
    "version": "2.0"
  },
  "bufferViews": [
    {
      "buffer": 0,
      "byteLength": 468000,
      "name": "floatBufferViews",
      "target": 34963
    },
    {
      "buffer": 0,
      "byteLength": 2126752,
      "byteOffset": 468000,
      "byteStride": 8,
      "name": "floatBufferViews",
      "target": 34962
    },
    {
      "buffer": 0,
      "byteLength": 1595496,
      "byteOffset": 2594752,
      "byteStride": 12,
      "name": "floatBufferViews",
      "target": 34962
    },
    {
      "buffer": 0,
      "byteLength": 1063280,
      "byteOffset": 4190248,
      "byteStride": 16,
      "name": "floatBufferViews",
      "target": 34962
    },
    {
      "buffer": 0,
      "byteLength": 2908,
      "byteOffset": 5253528,
      "name": "floatBufferViews"
    },
    {
      "buffer": 0,
      "byteLength": 3924,
      "byteOffset": 5256436,
      "byteStride": 12,
      "name": "floatBufferViews"
    },
    {
      "buffer": 0,
      "byteLength": 6400,
      "byteOffset": 5260360,
      "byteStride": 16,
      "name": "floatBufferViews"
    }
  ],
  "buffers": [
    {
      "byteLength": 5266760,
      "uri": "scene.bin"
    }
  ],
  "extensionsUsed": [
    "KHR_materials_emissive_strength",
    "KHR_texture_transform",
    "KHR_materials_specular"
  ],
  "images": [
    {
      "uri": "textures/MAT_LIGHT_1_emissive.png"
    },
    {
      "uri": "textures/MAT_Metal_baseColor.png"
    },
    {
      "uri": "textures/MAT_Metal_metallicRoughness.png"
    },
    {
      "uri": "textures/MAT_Metal_normal.png"
    }
  ],
  "materials": [
    {
      "doubleSided": true,
      "emissiveFactor": [
        1.0,
        1.0,
        1.0
      ],
      "emissiveTexture": {
        "extensions": {
          "KHR_texture_transform": {
            "offset": [
              -1.2,
              -1
            ],
            "scale": [
              2,
              2
            ]
          }
        },
        "index": 0
      },
      "extensions": {
        "KHR_materials_emissive_strength": {
          "emissiveStrength": 2.7276273603881456
        }
      },
      "name": "MAT_LIGHT_1",
      "pbrMetallicRoughness": {
        "baseColorFactor": [
          0.0,
          0.0,
          0.0,
          1.0
        ],
        "metallicFactor": 0.0,
        "roughnessFactor": 0.0
      }
    },
    {
      "doubleSided": true,
      "extensions": {
        "KHR_materials_specular": {
          "specularColorFactor": [
            1.0,
            1.0,
            1.0
          ],
          "specularFactor": 0.7116212163694212
        }
      },
      "name": "MAT_Metal",
      "normalTexture": {
        "extensions": {
          "KHR_texture_transform": {
            "offset": [
              0,
              -4
            ],
            "scale": [
              3,
              5
            ]
          }
        },
        "index": 3,
        "texCoord": 2
      },
      "pbrMetallicRoughness": {
        "baseColorTexture": {
          "extensions": {
            "KHR_texture_transform": {
              "offset": [
                0,
                -4
              ],
              "scale": [
                3,
                5
              ]
            }
          },
          "index": 1
        },
        "metallicRoughnessTexture": {
          "extensions": {
            "KHR_texture_transform": {
              "offset": [
                0,
                -4
              ],
              "scale": [
                3,
                5
              ]
            }
          },
          "index": 2,
          "texCoord": 1
        }
      }
    }
  ],
  "meshes": [
    {
      "name": "Object_0",
      "primitives": [
        {
          "attributes": {
            "NORMAL": 1,
            "POSITION": 0,
            "TEXCOORD_0": 2
          },
          "indices": 3,
          "material": 0,
          "mode": 4
        }
      ]
    },
    {
      "name": "Object_1",
      "primitives": [
        {
          "attributes": {
            "NORMAL": 5,
            "POSITION": 4,
            "TANGENT": 6,
            "TEXCOORD_0": 7,
            "TEXCOORD_1": 8,
            "TEXCOORD_2": 9,
            "TEXCOORD_3": 10
          },
          "indices": 11,
          "material": 1,
          "mode": 4
        }
      ]
    },
    {
      "name": "Object_2",
      "primitives": [
        {
          "attributes": {
            "NORMAL": 13,
            "POSITION": 12,
            "TANGENT": 14,
            "TEXCOORD_0": 15,
            "TEXCOORD_1": 16,
            "TEXCOORD_2": 17,
            "TEXCOORD_3": 18
          },
          "indices": 19,
          "material": 1,
          "mode": 4
        }
      ]
    }
  ],
  "nodes": [
    {
      "children": [
        1
      ],
      "matrix": [
        1.0,
        0.0,
        0.0,
        0.0,
        0.0,
        2.220446049250313e-16,
        -1.0,
        0.0,
        0.0,
        1.0,
        2.220446049250313e-16,
        0.0,
        0.0,
        0.0,
        0.0,
        1.0
      ],
      "name": "Sketchfab_model"
    },
    {
      "children": [
        2
      ],
      "name": "root"
    },
    {
      "children": [
        3
      ],
      "matrix": [
        1.0,
        0.0,
        0.0,
        0.0,
        0.0,
        2.220446049250313e-16,
        1.0,
        0.0,
        0.0,
        -1.0,
        2.220446049250313e-16,
        0.0,
        0.0,
        0.0,
        0.0,
        1.0
      ],
      "name": "GLTF_SceneRootNode"
    },
    {
      "children": [
        4,
        5,
        6
      ],
      "name": "PILAR_1_0",
      "scale": [
        1.7596484422683716,
        4.598251819610596,
        1.7596484422683716
      ]
    },
    {
      "mesh": 0,
      "name": "Object_4"
    },
    {
      "mesh": 1,
      "name": "Object_5"
    },
    {
      "mesh": 2,
      "name": "Object_6"
    }
  ],
  "samplers": [
    {
      "magFilter": 9729,
      "minFilter": 9987,
      "wrapS": 10497,
      "wrapT": 10497
    }
  ],
  "scene": 0,
  "scenes": [
    {
      "name": "Sketchfab_Scene",
      "nodes": [
        0
      ]
    }
  ],
  "textures": [
    {
      "sampler": 0,
      "source": 0
    },
    {
      "sampler": 0,
      "source": 1
    },
    {
      "sampler": 0,
      "source": 2
    },
    {
      "sampler": 0,
      "source": 3
    }
  ]
}
